<svg xmlns="http://www.w3.org/2000/svg" xmlns:xlink="http://www.w3.org/1999/xlink" version="1.1" class="marks" width="823" height="369" viewBox="0 0 823 369"><rect width="823" height="369" fill="white"/><g fill="none" stroke-miterlimit="10" transform="translate(48,31)"><g class="mark-group role-frame root" role="graphics-object" aria-roledescription="group mark container"><g transform="translate(0,0)"><path class="background" aria-hidden="true" d="M0,0h0v0h0Z"/><g><g class="mark-group role-column-header column_header" role="graphics-object" aria-roledescription="group mark container"><g transform="translate(0,-6)"><path class="background" aria-hidden="true" d="M0,0h300v0h-300Z"/><g><g class="mark-group role-title"><g transform="translate(150,-20)"><path class="background" aria-hidden="true" d="M0,0h0v0h0Z" pointer-events="none"/><g><g class="mark-text role-title-text" role="graphics-symbol" aria-roledescription="title" aria-label="Title text 'Test'" pointer-events="none"><text text-anchor="middle" transform="translate(0,8)" font-family="sans-serif" font-size="10px" fill="#000" opacity="1">Test</text></g></g><path class="foreground" aria-hidden="true" d="" pointer-events="none" display="none"/></g></g></g><path class="foreground" aria-hidden="true" d="" display="none"/></g><g transform="translate(365,-6)"><path class="background" aria-hidden="true" d="M0,0h300v0h-300Z"/><g><g class="mark-group role-title"><g transform="translate(150,-20)"><path class="background" aria-hidden="true" d="M0,0h0v0h0Z" pointer-events="none"/><g><g class="mark-text role-title-text" role="graphics-symbol" aria-roledescription="title" aria-label="Title text 'Training'" pointer-events="none"><text text-anchor="middle" transform="translate(0,8)" font-family="sans-serif" font-size="10px" fill="#000" opacity="1">Training</text></g></g><path class="foreground" aria-hidden="true" d="" pointer-events="none" display="none"/></g></g></g><path class="foreground" aria-hidden="true" d="" display="none"/></g></g><g class="mark-group role-scope cell" role="graphics-object" aria-roledescription="group mark container"><g transform="translate(0,0)"><path class="background" aria-hidden="true" d="M0.5,0.5h300v300h-300Z" stroke="#ddd"/><g><g class="mark-group role-axis" aria-hidden="true"><g transform="translate(0.5,300.5)"><path class="background" aria-hidden="true" d="M0,0h0v0h0Z" pointer-events="none"/><g><g class="mark-rule role-axis-grid" pointer-events="none"><line transform="translate(0,-300)" x2="0" y2="300" stroke="#ddd" stroke-width="1" opacity="1"/><line transform="translate(30,-300)" x2="0" y2="300" stroke="#ddd" stroke-width="1" opacity="1"/><line transform="translate(60,-300)" x2="0" y2="300" stroke="#ddd" stroke-width="1" opacity="1"/><line transform="translate(90,-300)" x2="0" y2="300" stroke="#ddd" stroke-width="1" opacity="1"/><line transform="translate(120,-300)" x2="0" y2="300" stroke="#ddd" stroke-width="1" opacity="1"/><line transform="translate(150,-300)" x2="0" y2="300" stroke="#ddd" stroke-width="1" opacity="1"/><line transform="translate(180,-300)" x2="0" y2="300" stroke="#ddd" stroke-width="1" opacity="1"/><line transform="translate(210,-300)" x2="0" y2="300" stroke="#ddd" stroke-width="1" opacity="1"/><line transform="translate(240,-300)" x2="0" y2="300" stroke="#ddd" stroke-width="1" opacity="1"/><line transform="translate(270,-300)" x2="0" y2="300" stroke="#ddd" stroke-width="1" opacity="1"/><line transform="translate(300,-300)" x2="0" y2="300" stroke="#ddd" stroke-width="1" opacity="1"/></g></g><path class="foreground" aria-hidden="true" d="" pointer-events="none" display="none"/></g></g><g class="mark-group role-axis" aria-hidden="true"><g transform="translate(0.5,0.5)"><path class="background" aria-hidden="true" d="M0,0h0v0h0Z" pointer-events="none"/><g><g class="mark-rule role-axis-grid" pointer-events="none"><line transform="translate(0,300)" x2="300" y2="0" stroke="#ddd" stroke-width="1" opacity="1"/><line transform="translate(0,270)" x2="300" y2="0" stroke="#ddd" stroke-width="1" opacity="1"/><line transform="translate(0,240)" x2="300" y2="0" stroke="#ddd" stroke-width="1" opacity="1"/><line transform="translate(0,210)" x2="300" y2="0" stroke="#ddd" stroke-width="1" opacity="1"/><line transform="translate(0,180)" x2="300" y2="0" stroke="#ddd" stroke-width="1" opacity="1"/><line transform="translate(0,150)" x2="300" y2="0" stroke="#ddd" stroke-width="1" opacity="1"/><line transform="translate(0,120)" x2="300" y2="0" stroke="#ddd" stroke-width="1" opacity="1"/><line transform="translate(0,90)" x2="300" y2="0" stroke="#ddd" stroke-width="1" opacity="1"/><line transform="translate(0,60)" x2="300" y2="0" stroke="#ddd" stroke-width="1" opacity="1"/><line transform="translate(0,30)" x2="300" y2="0" stroke="#ddd" stroke-width="1" opacity="1"/><line transform="translate(0,0)" x2="300" y2="0" stroke="#ddd" stroke-width="1" opacity="1"/></g></g><path class="foreground" aria-hidden="true" d="" pointer-events="none" display="none"/></g></g><g class="mark-group role-axis" role="graphics-symbol" aria-roledescription="axis" aria-label="X-axis titled 'Truth' for a linear scale with values from 0.00 to 0.20"><g transform="translate(0.5,300.5)"><path class="background" aria-hidden="true" d="M0,0h0v0h0Z" pointer-events="none"/><g><g class="mark-rule role-axis-tick" pointer-events="none"><line transform="translate(0,0)" x2="0" y2="5" stroke="#888" stroke-width="1" opacity="1"/><line transform="translate(30,0)" x2="0" y2="5" stroke="#888" stroke-width="1" opacity="1"/><line transform="translate(60,0)" x2="0" y2="5" stroke="#888" stroke-width="1" opacity="1"/><line transform="translate(90,0)" x2="0" y2="5" stroke="#888" stroke-width="1" opacity="1"/><line transform="translate(120,0)" x2="0" y2="5" stroke="#888" stroke-width="1" opacity="1"/><line transform="translate(150,0)" x2="0" y2="5" stroke="#888" stroke-width="1" opacity="1"/><line transform="translate(180,0)" x2="0" y2="5" stroke="#888" stroke-width="1" opacity="1"/><line transform="translate(210,0)" x2="0" y2="5" stroke="#888" stroke-width="1" opacity="1"/><line transform="translate(240,0)" x2="0" y2="5" stroke="#888" stroke-width="1" opacity="1"/><line transform="translate(270,0)" x2="0" y2="5" stroke="#888" stroke-width="1" opacity="1"/><line transform="translate(300,0)" x2="0" y2="5" stroke="#888" stroke-width="1" opacity="1"/></g><g class="mark-text role-axis-label" pointer-events="none"><text text-anchor="start" transform="translate(0,15)" font-family="sans-serif" font-size="10px" fill="#000" opacity="1">0.00</text><text text-anchor="middle" transform="translate(29.999999999999996,15)" font-family="sans-serif" font-size="10px" fill="#000" opacity="1">0.02</text><text text-anchor="middle" transform="translate(59.99999999999999,15)" font-family="sans-serif" font-size="10px" fill="#000" opacity="1">0.04</text><text text-anchor="middle" transform="translate(90,15)" font-family="sans-serif" font-size="10px" fill="#000" opacity="1">0.06</text><text text-anchor="middle" transform="translate(119.99999999999999,15)" font-family="sans-serif" font-size="10px" fill="#000" opacity="1">0.08</text><text text-anchor="middle" transform="translate(150,15)" font-family="sans-serif" font-size="10px" fill="#000" opacity="1">0.10</text><text text-anchor="middle" transform="translate(180,15)" font-family="sans-serif" font-size="10px" fill="#000" opacity="1">0.12</text><text text-anchor="middle" transform="translate(210.00000000000003,15)" font-family="sans-serif" font-size="10px" fill="#000" opacity="1">0.14</text><text text-anchor="middle" transform="translate(239.99999999999997,15)" font-family="sans-serif" font-size="10px" fill="#000" opacity="1">0.16</text><text text-anchor="middle" transform="translate(270,15)" font-family="sans-serif" font-size="10px" fill="#000" opacity="1">0.18</text><text text-anchor="end" transform="translate(300,15)" font-family="sans-serif" font-size="10px" fill="#000" opacity="1">0.20</text></g><g class="mark-rule role-axis-domain" pointer-events="none"><line transform="translate(0,0)" x2="300" y2="0" stroke="#888" stroke-width="1" opacity="1"/></g><g class="mark-text role-axis-title" pointer-events="none"><text text-anchor="middle" transform="translate(150,30)" font-family="sans-serif" font-size="11px" font-weight="bold" fill="#000" opacity="1">Truth</text></g></g><path class="foreground" aria-hidden="true" d="" pointer-events="none" display="none"/></g></g><g class="mark-group role-axis" role="graphics-symbol" aria-roledescription="axis" aria-label="Y-axis titled 'Prediction' for a linear scale with values from 0.00 to 0.20"><g transform="translate(0.5,0.5)"><path class="background" aria-hidden="true" d="M0,0h0v0h0Z" pointer-events="none"/><g><g class="mark-rule role-axis-tick" pointer-events="none"><line transform="translate(0,300)" x2="-5" y2="0" stroke="#888" stroke-width="1" opacity="1"/><line transform="translate(0,270)" x2="-5" y2="0" stroke="#888" stroke-width="1" opacity="1"/><line transform="translate(0,240)" x2="-5" y2="0" stroke="#888" stroke-width="1" opacity="1"/><line transform="translate(0,210)" x2="-5" y2="0" stroke="#888" stroke-width="1" opacity="1"/><line transform="translate(0,180)" x2="-5" y2="0" stroke="#888" stroke-width="1" opacity="1"/><line transform="translate(0,150)" x2="-5" y2="0" stroke="#888" stroke-width="1" opacity="1"/><line transform="translate(0,120)" x2="-5" y2="0" stroke="#888" stroke-width="1" opacity="1"/><line transform="translate(0,90)" x2="-5" y2="0" stroke="#888" stroke-width="1" opacity="1"/><line transform="translate(0,60)" x2="-5" y2="0" stroke="#888" stroke-width="1" opacity="1"/><line transform="translate(0,30)" x2="-5" y2="0" stroke="#888" stroke-width="1" opacity="1"/><line transform="translate(0,0)" x2="-5" y2="0" stroke="#888" stroke-width="1" opacity="1"/></g><g class="mark-text role-axis-label" pointer-events="none"><text text-anchor="end" transform="translate(-7,303)" font-family="sans-serif" font-size="10px" fill="#000" opacity="1">0.00</text><text text-anchor="end" transform="translate(-7,273)" font-family="sans-serif" font-size="10px" fill="#000" opacity="1">0.02</text><text text-anchor="end" transform="translate(-7,243)" font-family="sans-serif" font-size="10px" fill="#000" opacity="1">0.04</text><text text-anchor="end" transform="translate(-7,213)" font-family="sans-serif" font-size="10px" fill="#000" opacity="1">0.06</text><text text-anchor="end" transform="translate(-7,183.00000000000003)" font-family="sans-serif" font-size="10px" fill="#000" opacity="1">0.08</text><text text-anchor="end" transform="translate(-7,153)" font-family="sans-serif" font-size="10px" fill="#000" opacity="1">0.10</text><text text-anchor="end" transform="translate(-7,123)" font-family="sans-serif" font-size="10px" fill="#000" opacity="1">0.12</text><text text-anchor="end" transform="translate(-7,92.99999999999999)" font-family="sans-serif" font-size="10px" fill="#000" opacity="1">0.14</text><text text-anchor="end" transform="translate(-7,63.00000000000002)" font-family="sans-serif" font-size="10px" fill="#000" opacity="1">0.16</text><text text-anchor="end" transform="translate(-7,33.00000000000003)" font-family="sans-serif" font-size="10px" fill="#000" opacity="1">0.18</text><text text-anchor="end" transform="translate(-7,3)" font-family="sans-serif" font-size="10px" fill="#000" opacity="1">0.20</text></g><g class="mark-rule role-axis-domain" pointer-events="none"><line transform="translate(0,300)" x2="0" y2="-300" stroke="#888" stroke-width="1" opacity="1"/></g><g class="mark-text role-axis-title" pointer-events="none"><text text-anchor="middle" transform="translate(-30.462890625,150) rotate(-90) translate(0,-2)" font-family="sans-serif" font-size="11px" font-weight="bold" fill="#000" opacity="1">Prediction</text></g></g><path class="foreground" aria-hidden="true" d="" pointer-events="none" display="none"/></g></g><g class="mark-symbol role-mark child_layer_0_marks" role="graphics-object" aria-roledescription="symbol mark container"><path aria-label="Truth: 0.0357142857143; Prediction: 0.107142857143; Classifier: Random Forest" role="graphics-symbol" aria-roledescription="point" transform="translate(53.57142857142856,139.28571428571428)" d="M2.739,0A2.739,2.739,0,1,1,-2.739,0A2.739,2.739,0,1,1,2.739,0" stroke="#4c78a8" stroke-width="2" opacity="0.7"/><path aria-label="Truth: 0.0238095238095; Prediction: 0; Classifier: Random Forest" role="graphics-symbol" aria-roledescription="point" transform="translate(35.714285714285715,300)" d="M2.739,0A2.739,2.739,0,1,1,-2.739,0A2.739,2.739,0,1,1,2.739,0" stroke="#4c78a8" stroke-width="2" opacity="0.7"/><path aria-label="Truth: 0.09375; Prediction: 0.125; Classifier: Random Forest" role="graphics-symbol" aria-roledescription="point" transform="translate(140.625,112.5)" d="M2.739,0A2.739,2.739,0,1,1,-2.739,0A2.739,2.739,0,1,1,2.739,0" stroke="#4c78a8" stroke-width="2" opacity="0.7"/><path aria-label="Truth: 0.0666666666667; Prediction: 0.0666666666667; Classifier: Random Forest" role="graphics-symbol" aria-roledescription="point" transform="translate(100,200.00000000000003)" d="M2.739,0A2.739,2.739,0,1,1,-2.739,0A2.739,2.739,0,1,1,2.739,0" stroke="#4c78a8" stroke-width="2" opacity="0.7"/><path aria-label="Truth: 0.19512195122; Prediction: 0.19512195122; Classifier: Random Forest" role="graphics-symbol" aria-roledescription="point" transform="translate(292.6829268292683,7.317073170731714)" d="M2.739,0A2.739,2.739,0,1,1,-2.739,0A2.739,2.739,0,1,1,2.739,0" stroke="#4c78a8" stroke-width="2" opacity="0.7"/><path aria-label="Truth: 0.135135135135; Prediction: 0.108108108108; Classifier: Random Forest" role="graphics-symbol" aria-roledescription="point" transform="translate(202.7027027027027,137.83783783783784)" d="M2.739,0A2.739,2.739,0,1,1,-2.739,0A2.739,2.739,0,1,1,2.739,0" stroke="#4c78a8" stroke-width="2" opacity="0.7"/><path aria-label="Truth: 0.0689655172414; Prediction: 0.051724137931; Classifier: Random Forest" role="graphics-symbol" aria-roledescription="point" transform="translate(103.44827586206895,222.41379310344828)" d="M2.739,0A2.739,2.739,0,1,1,-2.739,0A2.739,2.739,0,1,1,2.739,0" stroke="#4c78a8" stroke-width="2" opacity="0.7"/><path aria-label="Truth: 0.0357142857143; Prediction: 0.107142857143; Classifier: XGBoost" role="graphics-symbol" aria-roledescription="point" transform="translate(53.57142857142856,139.28571428571428)" d="M-2.739,-2.739h5.477v5.477h-5.477Z" stroke="#f58518" stroke-width="2" opacity="0.7"/><path aria-label="Truth: 0.0238095238095; Prediction: 0; Classifier: XGBoost" role="graphics-symbol" aria-roledescription="point" transform="translate(35.714285714285715,300)" d="M-2.739,-2.739h5.477v5.477h-5.477Z" stroke="#f58518" stroke-width="2" opacity="0.7"/><path aria-label="Truth: 0.09375; Prediction: 0.09375; Classifier: XGBoost" role="graphics-symbol" aria-roledescription="point" transform="translate(140.625,159.375)" d="M-2.739,-2.739h5.477v5.477h-5.477Z" stroke="#f58518" stroke-width="2" opacity="0.7"/><path aria-label="Truth: 0.0666666666667; Prediction: 0.0666666666667; Classifier: XGBoost" role="graphics-symbol" aria-roledescription="point" transform="translate(100,200.00000000000003)" d="M-2.739,-2.739h5.477v5.477h-5.477Z" stroke="#f58518" stroke-width="2" opacity="0.7"/><path aria-label="Truth: 0.19512195122; Prediction: 0.170731707317; Classifier: XGBoost" role="graphics-symbol" aria-roledescription="point" transform="translate(292.6829268292683,43.90243902439025)" d="M-2.739,-2.739h5.477v5.477h-5.477Z" stroke="#f58518" stroke-width="2" opacity="0.7"/><path aria-label="Truth: 0.135135135135; Prediction: 0.108108108108; Classifier: XGBoost" role="graphics-symbol" aria-roledescription="point" transform="translate(202.7027027027027,137.83783783783784)" d="M-2.739,-2.739h5.477v5.477h-5.477Z" stroke="#f58518" stroke-width="2" opacity="0.7"/><path aria-label="Truth: 0.0689655172414; Prediction: 0.051724137931; Classifier: XGBoost" role="graphics-symbol" aria-roledescription="point" transform="translate(103.44827586206895,222.41379310344828)" d="M-2.739,-2.739h5.477v5.477h-5.477Z" stroke="#f58518" stroke-width="2" opacity="0.7"/></g><g class="mark-rule role-mark child_layer_1_marks" role="graphics-symbol" aria-roledescription="rule mark container"><line transform="translate(0,300)" x2="300" y2="-300" stroke="black"/><line transform="translate(0,300)" x2="300" y2="-300" stroke="black"/><line transform="translate(0,300)" x2="300" y2="-300" stroke="black"/><line transform="translate(0,300)" x2="300" y2="-300" stroke="black"/><line transform="translate(0,300)" x2="300" y2="-300" stroke="black"/><line transform="translate(0,300)" x2="300" y2="-300" stroke="black"/><line transform="translate(0,300)" x2="300" y2="-300" stroke="black"/><line transform="translate(0,300)" x2="300" y2="-300" stroke="black"/><line transform="translate(0,300)" x2="300" y2="-300" stroke="black"/><line transform="translate(0,300)" x2="300" y2="-300" stroke="black"/><line transform="translate(0,300)" x2="300" y2="-300" stroke="black"/><line transform="translate(0,300)" x2="300" y2="-300" stroke="black"/><line transform="translate(0,300)" x2="300" y2="-300" stroke="black"/><line transform="translate(0,300)" x2="300" y2="-300" stroke="black"/></g></g><path class="foreground" aria-hidden="true" d="" display="none"/></g><g transform="translate(365,0)"><path class="background" aria-hidden="true" d="M0.5,0.5h300v300h-300Z" stroke="#ddd"/><g><g class="mark-group role-axis" aria-hidden="true"><g transform="translate(0.5,300.5)"><path class="background" aria-hidden="true" d="M0,0h0v0h0Z" pointer-events="none"/><g><g class="mark-rule role-axis-grid" pointer-events="none"><line transform="translate(0,-300)" x2="0" y2="300" stroke="#ddd" stroke-width="1" opacity="1"/><line transform="translate(30,-300)" x2="0" y2="300" stroke="#ddd" stroke-width="1" opacity="1"/><line transform="translate(60,-300)" x2="0" y2="300" stroke="#ddd" stroke-width="1" opacity="1"/><line transform="translate(90,-300)" x2="0" y2="300" stroke="#ddd" stroke-width="1" opacity="1"/><line transform="translate(120,-300)" x2="0" y2="300" stroke="#ddd" stroke-width="1" opacity="1"/><line transform="translate(150,-300)" x2="0" y2="300" stroke="#ddd" stroke-width="1" opacity="1"/><line transform="translate(180,-300)" x2="0" y2="300" stroke="#ddd" stroke-width="1" opacity="1"/><line transform="translate(210,-300)" x2="0" y2="300" stroke="#ddd" stroke-width="1" opacity="1"/><line transform="translate(240,-300)" x2="0" y2="300" stroke="#ddd" stroke-width="1" opacity="1"/><line transform="translate(270,-300)" x2="0" y2="300" stroke="#ddd" stroke-width="1" opacity="1"/><line transform="translate(300,-300)" x2="0" y2="300" stroke="#ddd" stroke-width="1" opacity="1"/></g></g><path class="foreground" aria-hidden="true" d="" pointer-events="none" display="none"/></g></g><g class="mark-group role-axis" aria-hidden="true"><g transform="translate(0.5,0.5)"><path class="background" aria-hidden="true" d="M0,0h0v0h0Z" pointer-events="none"/><g><g class="mark-rule role-axis-grid" pointer-events="none"><line transform="translate(0,300)" x2="300" y2="0" stroke="#ddd" stroke-width="1" opacity="1"/><line transform="translate(0,270)" x2="300" y2="0" stroke="#ddd" stroke-width="1" opacity="1"/><line transform="translate(0,240)" x2="300" y2="0" stroke="#ddd" stroke-width="1" opacity="1"/><line transform="translate(0,210)" x2="300" y2="0" stroke="#ddd" stroke-width="1" opacity="1"/><line transform="translate(0,180)" x2="300" y2="0" stroke="#ddd" stroke-width="1" opacity="1"/><line transform="translate(0,150)" x2="300" y2="0" stroke="#ddd" stroke-width="1" opacity="1"/><line transform="translate(0,120)" x2="300" y2="0" stroke="#ddd" stroke-width="1" opacity="1"/><line transform="translate(0,90)" x2="300" y2="0" stroke="#ddd" stroke-width="1" opacity="1"/><line transform="translate(0,60)" x2="300" y2="0" stroke="#ddd" stroke-width="1" opacity="1"/><line transform="translate(0,30)" x2="300" y2="0" stroke="#ddd" stroke-width="1" opacity="1"/><line transform="translate(0,0)" x2="300" y2="0" stroke="#ddd" stroke-width="1" opacity="1"/></g></g><path class="foreground" aria-hidden="true" d="" pointer-events="none" display="none"/></g></g><g class="mark-group role-axis" role="graphics-symbol" aria-roledescription="axis" aria-label="X-axis titled 'Truth' for a linear scale with values from 0.00 to 0.20"><g transform="translate(0.5,300.5)"><path class="background" aria-hidden="true" d="M0,0h0v0h0Z" pointer-events="none"/><g><g class="mark-rule role-axis-tick" pointer-events="none"><line transform="translate(0,0)" x2="0" y2="5" stroke="#888" stroke-width="1" opacity="1"/><line transform="translate(30,0)" x2="0" y2="5" stroke="#888" stroke-width="1" opacity="1"/><line transform="translate(60,0)" x2="0" y2="5" stroke="#888" stroke-width="1" opacity="1"/><line transform="translate(90,0)" x2="0" y2="5" stroke="#888" stroke-width="1" opacity="1"/><line transform="translate(120,0)" x2="0" y2="5" stroke="#888" stroke-width="1" opacity="1"/><line transform="translate(150,0)" x2="0" y2="5" stroke="#888" stroke-width="1" opacity="1"/><line transform="translate(180,0)" x2="0" y2="5" stroke="#888" stroke-width="1" opacity="1"/><line transform="translate(210,0)" x2="0" y2="5" stroke="#888" stroke-width="1" opacity="1"/><line transform="translate(240,0)" x2="0" y2="5" stroke="#888" stroke-width="1" opacity="1"/><line transform="translate(270,0)" x2="0" y2="5" stroke="#888" stroke-width="1" opacity="1"/><line transform="translate(300,0)" x2="0" y2="5" stroke="#888" stroke-width="1" opacity="1"/></g><g class="mark-text role-axis-label" pointer-events="none"><text text-anchor="start" transform="translate(0,15)" font-family="sans-serif" font-size="10px" fill="#000" opacity="1">0.00</text><text text-anchor="middle" transform="translate(29.999999999999996,15)" font-family="sans-serif" font-size="10px" fill="#000" opacity="1">0.02</text><text text-anchor="middle" transform="translate(59.99999999999999,15)" font-family="sans-serif" font-size="10px" fill="#000" opacity="1">0.04</text><text text-anchor="middle" transform="translate(90,15)" font-family="sans-serif" font-size="10px" fill="#000" opacity="1">0.06</text><text text-anchor="middle" transform="translate(119.99999999999999,15)" font-family="sans-serif" font-size="10px" fill="#000" opacity="1">0.08</text><text text-anchor="middle" transform="translate(150,15)" font-family="sans-serif" font-size="10px" fill="#000" opacity="1">0.10</text><text text-anchor="middle" transform="translate(180,15)" font-family="sans-serif" font-size="10px" fill="#000" opacity="1">0.12</text><text text-anchor="middle" transform="translate(210.00000000000003,15)" font-family="sans-serif" font-size="10px" fill="#000" opacity="1">0.14</text><text text-anchor="middle" transform="translate(239.99999999999997,15)" font-family="sans-serif" font-size="10px" fill="#000" opacity="1">0.16</text><text text-anchor="middle" transform="translate(270,15)" font-family="sans-serif" font-size="10px" fill="#000" opacity="1">0.18</text><text text-anchor="end" transform="translate(300,15)" font-family="sans-serif" font-size="10px" fill="#000" opacity="1">0.20</text></g><g class="mark-rule role-axis-domain" pointer-events="none"><line transform="translate(0,0)" x2="300" y2="0" stroke="#888" stroke-width="1" opacity="1"/></g><g class="mark-text role-axis-title" pointer-events="none"><text text-anchor="middle" transform="translate(150,30)" font-family="sans-serif" font-size="11px" font-weight="bold" fill="#000" opacity="1">Truth</text></g></g><path class="foreground" aria-hidden="true" d="" pointer-events="none" display="none"/></g></g><g class="mark-group role-axis" role="graphics-symbol" aria-roledescription="axis" aria-label="Y-axis titled 'Prediction' for a linear scale with values from 0.00 to 0.20"><g transform="translate(0.5,0.5)"><path class="background" aria-hidden="true" d="M0,0h0v0h0Z" pointer-events="none"/><g><g class="mark-rule role-axis-tick" pointer-events="none"><line transform="translate(0,300)" x2="-5" y2="0" stroke="#888" stroke-width="1" opacity="1"/><line transform="translate(0,270)" x2="-5" y2="0" stroke="#888" stroke-width="1" opacity="1"/><line transform="translate(0,240)" x2="-5" y2="0" stroke="#888" stroke-width="1" opacity="1"/><line transform="translate(0,210)" x2="-5" y2="0" stroke="#888" stroke-width="1" opacity="1"/><line transform="translate(0,180)" x2="-5" y2="0" stroke="#888" stroke-width="1" opacity="1"/><line transform="translate(0,150)" x2="-5" y2="0" stroke="#888" stroke-width="1" opacity="1"/><line transform="translate(0,120)" x2="-5" y2="0" stroke="#888" stroke-width="1" opacity="1"/><line transform="translate(0,90)" x2="-5" y2="0" stroke="#888" stroke-width="1" opacity="1"/><line transform="translate(0,60)" x2="-5" y2="0" stroke="#888" stroke-width="1" opacity="1"/><line transform="translate(0,30)" x2="-5" y2="0" stroke="#888" stroke-width="1" opacity="1"/><line transform="translate(0,0)" x2="-5" y2="0" stroke="#888" stroke-width="1" opacity="1"/></g><g class="mark-text role-axis-label" pointer-events="none"><text text-anchor="end" transform="translate(-7,303)" font-family="sans-serif" font-size="10px" fill="#000" opacity="1">0.00</text><text text-anchor="end" transform="translate(-7,273)" font-family="sans-serif" font-size="10px" fill="#000" opacity="1">0.02</text><text text-anchor="end" transform="translate(-7,243)" font-family="sans-serif" font-size="10px" fill="#000" opacity="1">0.04</text><text text-anchor="end" transform="translate(-7,213)" font-family="sans-serif" font-size="10px" fill="#000" opacity="1">0.06</text><text text-anchor="end" transform="translate(-7,183.00000000000003)" font-family="sans-serif" font-size="10px" fill="#000" opacity="1">0.08</text><text text-anchor="end" transform="translate(-7,153)" font-family="sans-serif" font-size="10px" fill="#000" opacity="1">0.10</text><text text-anchor="end" transform="translate(-7,123)" font-family="sans-serif" font-size="10px" fill="#000" opacity="1">0.12</text><text text-anchor="end" transform="translate(-7,92.99999999999999)" font-family="sans-serif" font-size="10px" fill="#000" opacity="1">0.14</text><text text-anchor="end" transform="translate(-7,63.00000000000002)" font-family="sans-serif" font-size="10px" fill="#000" opacity="1">0.16</text><text text-anchor="end" transform="translate(-7,33.00000000000003)" font-family="sans-serif" font-size="10px" fill="#000" opacity="1">0.18</text><text text-anchor="end" transform="translate(-7,3)" font-family="sans-serif" font-size="10px" fill="#000" opacity="1">0.20</text></g><g class="mark-rule role-axis-domain" pointer-events="none"><line transform="translate(0,300)" x2="0" y2="-300" stroke="#888" stroke-width="1" opacity="1"/></g><g class="mark-text role-axis-title" pointer-events="none"><text text-anchor="middle" transform="translate(-30.462890625,150) rotate(-90) translate(0,-2)" font-family="sans-serif" font-size="11px" font-weight="bold" fill="#000" opacity="1">Prediction</text></g></g><path class="foreground" aria-hidden="true" d="" pointer-events="none" display="none"/></g></g><g class="mark-symbol role-mark child_layer_0_marks" role="graphics-object" aria-roledescription="symbol mark container"><path aria-label="Truth: 0.0617283950617; Prediction: 0.0617283950617; Classifier: Random Forest" role="graphics-symbol" aria-roledescription="point" transform="translate(92.59259259259258,207.4074074074074)" d="M2.739,0A2.739,2.739,0,1,1,-2.739,0A2.739,2.739,0,1,1,2.739,0" stroke="#4c78a8" stroke-width="2" opacity="0.7"/><path aria-label="Truth: 0.0490797546012; Prediction: 0.0613496932515; Classifier: Random Forest" role="graphics-symbol" aria-roledescription="point" transform="translate(73.61963190184049,207.9754601226994)" d="M2.739,0A2.739,2.739,0,1,1,-2.739,0A2.739,2.739,0,1,1,2.739,0" stroke="#4c78a8" stroke-width="2" opacity="0.7"/><path aria-label="Truth: 0.14606741573; Prediction: 0.179775280899; Classifier: Random Forest" role="graphics-symbol" aria-roledescription="point" transform="translate(219.10112359550558,30.337078651685403)" d="M2.739,0A2.739,2.739,0,1,1,-2.739,0A2.739,2.739,0,1,1,2.739,0" stroke="#4c78a8" stroke-width="2" opacity="0.7"/><path aria-label="Truth: 0.107843137255; Prediction: 0.117647058824; Classifier: Random Forest" role="graphics-symbol" aria-roledescription="point" transform="translate(161.76470588235293,123.52941176470591)" d="M2.739,0A2.739,2.739,0,1,1,-2.739,0A2.739,2.739,0,1,1,2.739,0" stroke="#4c78a8" stroke-width="2" opacity="0.7"/><path aria-label="Truth: 0.095652173913; Prediction: 0.104347826087; Classifier: Random Forest" role="graphics-symbol" aria-roledescription="point" transform="translate(143.47826086956522,143.47826086956522)" d="M2.739,0A2.739,2.739,0,1,1,-2.739,0A2.739,2.739,0,1,1,2.739,0" stroke="#4c78a8" stroke-width="2" opacity="0.7"/><path aria-label="Truth: 0.122807017544; Prediction: 0.140350877193; Classifier: Random Forest" role="graphics-symbol" aria-roledescription="point" transform="translate(184.21052631578945,89.47368421052633)" d="M2.739,0A2.739,2.739,0,1,1,-2.739,0A2.739,2.739,0,1,1,2.739,0" stroke="#4c78a8" stroke-width="2" opacity="0.7"/><path aria-label="Truth: 0.0942028985507; Prediction: 0.108695652174; Classifier: Random Forest" role="graphics-symbol" aria-roledescription="point" transform="translate(141.30434782608694,136.95652173913044)" d="M2.739,0A2.739,2.739,0,1,1,-2.739,0A2.739,2.739,0,1,1,2.739,0" stroke="#4c78a8" stroke-width="2" opacity="0.7"/><path aria-label="Truth: 0.0617283950617; Prediction: 0.0617283950617; Classifier: XGBoost" role="graphics-symbol" aria-roledescription="point" transform="translate(92.59259259259258,207.4074074074074)" d="M-2.739,-2.739h5.477v5.477h-5.477Z" stroke="#f58518" stroke-width="2" opacity="0.7"/><path aria-label="Truth: 0.0490797546012; Prediction: 0.0552147239264; Classifier: XGBoost" role="graphics-symbol" aria-roledescription="point" transform="translate(73.61963190184049,217.17791411042947)" d="M-2.739,-2.739h5.477v5.477h-5.477Z" stroke="#f58518" stroke-width="2" opacity="0.7"/><path aria-label="Truth: 0.14606741573; Prediction: 0.14606741573; Classifier: XGBoost" role="graphics-symbol" aria-roledescription="point" transform="translate(219.10112359550558,80.89887640449442)" d="M-2.739,-2.739h5.477v5.477h-5.477Z" stroke="#f58518" stroke-width="2" opacity="0.7"/><path aria-label="Truth: 0.107843137255; Prediction: 0.117647058824; Classifier: XGBoost" role="graphics-symbol" aria-roledescription="point" transform="translate(161.76470588235293,123.52941176470591)" d="M-2.739,-2.739h5.477v5.477h-5.477Z" stroke="#f58518" stroke-width="2" opacity="0.7"/><path aria-label="Truth: 0.095652173913; Prediction: 0.0782608695652; Classifier: XGBoost" role="graphics-symbol" aria-roledescription="point" transform="translate(143.47826086956522,182.60869565217394)" d="M-2.739,-2.739h5.477v5.477h-5.477Z" stroke="#f58518" stroke-width="2" opacity="0.7"/><path aria-label="Truth: 0.122807017544; Prediction: 0.122807017544; Classifier: XGBoost" role="graphics-symbol" aria-roledescription="point" transform="translate(184.21052631578945,115.78947368421055)" d="M-2.739,-2.739h5.477v5.477h-5.477Z" stroke="#f58518" stroke-width="2" opacity="0.7"/><path aria-label="Truth: 0.0942028985507; Prediction: 0.0869565217391; Classifier: XGBoost" role="graphics-symbol" aria-roledescription="point" transform="translate(141.30434782608694,169.56521739130437)" d="M-2.739,-2.739h5.477v5.477h-5.477Z" stroke="#f58518" stroke-width="2" opacity="0.7"/></g><g class="mark-rule role-mark child_layer_1_marks" role="graphics-symbol" aria-roledescription="rule mark container"><line transform="translate(0,300)" x2="300" y2="-300" stroke="black"/><line transform="translate(0,300)" x2="300" y2="-300" stroke="black"/><line transform="translate(0,300)" x2="300" y2="-300" stroke="black"/><line transform="translate(0,300)" x2="300" y2="-300" stroke="black"/><line transform="translate(0,300)" x2="300" y2="-300" stroke="black"/><line transform="translate(0,300)" x2="300" y2="-300" stroke="black"/><line transform="translate(0,300)" x2="300" y2="-300" stroke="black"/><line transform="translate(0,300)" x2="300" y2="-300" stroke="black"/><line transform="translate(0,300)" x2="300" y2="-300" stroke="black"/><line transform="translate(0,300)" x2="300" y2="-300" stroke="black"/><line transform="translate(0,300)" x2="300" y2="-300" stroke="black"/><line transform="translate(0,300)" x2="300" y2="-300" stroke="black"/><line transform="translate(0,300)" x2="300" y2="-300" stroke="black"/><line transform="translate(0,300)" x2="300" y2="-300" stroke="black"/></g></g><path class="foreground" aria-hidden="true" d="" display="none"/></g></g><g class="mark-group role-legend" role="graphics-symbol" aria-roledescription="legend" aria-label="Symbol legend titled 'Classifier' for shape and stroke color with 2 values: Random Forest, XGBoost"><g transform="translate(685,0)"><path class="background" aria-hidden="true" d="M0,0h85v45h-85Z" pointer-events="none"/><g><g class="mark-group role-legend-entry"><g transform="translate(0,16)"><path class="background" aria-hidden="true" d="M0,0h0v0h0Z" pointer-events="none"/><g><g class="mark-group role-scope" role="graphics-object" aria-roledescription="group mark container"><g transform="translate(0,0)"><path class="background" aria-hidden="true" d="M0,0h84.916015625v12.5h-84.916015625Z" pointer-events="none" opacity="1"/><g><g class="mark-symbol role-legend-symbol" pointer-events="none"><path transform="translate(6,6)" d="M5,0A5,5,0,1,1,-5,0A5,5,0,1,1,5,0" stroke="#4c78a8" stroke-width="1.5" opacity="0.7"/></g><g class="mark-text role-legend-label" pointer-events="none"><text text-anchor="start" transform="translate(16,9)" font-family="sans-serif" font-size="10px" fill="#000" opacity="1">Random Forest</text></g></g><path class="foreground" aria-hidden="true" d="" pointer-events="none" display="none"/></g><g transform="translate(0,16)"><path class="background" aria-hidden="true" d="M0,0h84.916015625v12.5h-84.916015625Z" pointer-events="none" opacity="1"/><g><g class="mark-symbol role-legend-symbol" pointer-events="none"><path transform="translate(6,6)" d="M-5,-5h10v10h-10Z" stroke="#f58518" stroke-width="1.5" opacity="0.7"/></g><g class="mark-text role-legend-label" pointer-events="none"><text text-anchor="start" transform="translate(16,9)" font-family="sans-serif" font-size="10px" fill="#000" opacity="1">XGBoost</text></g></g><path class="foreground" aria-hidden="true" d="" pointer-events="none" display="none"/></g></g></g><path class="foreground" aria-hidden="true" d="" pointer-events="none" display="none"/></g></g><g class="mark-text role-legend-title" pointer-events="none"><text text-anchor="start" transform="translate(0,9)" font-family="sans-serif" font-size="11px" font-weight="bold" fill="#000" opacity="1">Classifier</text></g></g><path class="foreground" aria-hidden="true" d="" pointer-events="none" display="none"/></g></g></g><path class="foreground" aria-hidden="true" d="" display="none"/></g></g></g></svg>