<svg xmlns="http://www.w3.org/2000/svg" xmlns:xlink="http://www.w3.org/1999/xlink" version="1.1" class="marks" width="929" height="418" viewBox="0 0 929 418"><rect width="929" height="418" fill="white"/><g fill="none" stroke-miterlimit="10" transform="translate(71,42)"><g class="mark-group role-frame root" role="graphics-object" aria-roledescription="group mark container"><g transform="translate(0,0)"><path class="background" aria-hidden="true" d="M0,0h0v300h0Z"/><g><g class="mark-group role-scope concat_0_group" role="graphics-object" aria-roledescription="group mark container"><g transform="translate(0,0)"><path class="background" aria-hidden="true" d="M0.5,0.5h300v300h-300Z" stroke="#ddd"/><g><g class="mark-group role-axis" aria-hidden="true"><g transform="translate(0.5,0.5)"><path class="background" aria-hidden="true" d="M0,0h0v0h0Z" pointer-events="none"/><g><g class="mark-rule role-axis-grid" pointer-events="none"><line transform="translate(0,300)" x2="300" y2="0" stroke="#ddd" stroke-width="1" opacity="1"/><line transform="translate(0,242)" x2="300" y2="0" stroke="#ddd" stroke-width="1" opacity="1"/><line transform="translate(0,185)" x2="300" y2="0" stroke="#ddd" stroke-width="1" opacity="1"/><line transform="translate(0,127)" x2="300" y2="0" stroke="#ddd" stroke-width="1" opacity="1"/><line transform="translate(0,69)" x2="300" y2="0" stroke="#ddd" stroke-width="1" opacity="1"/><line transform="translate(0,12)" x2="300" y2="0" stroke="#ddd" stroke-width="1" opacity="1"/></g></g><path class="foreground" aria-hidden="true" d="" pointer-events="none" display="none"/></g></g><g class="mark-group role-axis" role="graphics-symbol" aria-roledescription="axis" aria-label="X-axis titled 'Year' for a discrete scale with 7 values: 2011, 2012, 2013, 2014, 2015, 2016, 2017"><g transform="translate(0.5,300.5)"><path class="background" aria-hidden="true" d="M0,0h0v0h0Z" pointer-events="none"/><g><g class="mark-rule role-axis-tick" pointer-events="none"><line transform="translate(21,0)" x2="0" y2="5" stroke="#888" stroke-width="1" opacity="1"/><line transform="translate(64,0)" x2="0" y2="5" stroke="#888" stroke-width="1" opacity="1"/><line transform="translate(107,0)" x2="0" y2="5" stroke="#888" stroke-width="1" opacity="1"/><line transform="translate(150,0)" x2="0" y2="5" stroke="#888" stroke-width="1" opacity="1"/><line transform="translate(193,0)" x2="0" y2="5" stroke="#888" stroke-width="1" opacity="1"/><line transform="translate(236,0)" x2="0" y2="5" stroke="#888" stroke-width="1" opacity="1"/><line transform="translate(279,0)" x2="0" y2="5" stroke="#888" stroke-width="1" opacity="1"/></g><g class="mark-text role-axis-label" pointer-events="none"><text text-anchor="end" transform="translate(21.428571428571445,7) rotate(270) translate(0,5)" font-family="sans-serif" font-size="18px" fill="#000" opacity="1">2011</text><text text-anchor="end" transform="translate(64.2857142857143,7) rotate(270) translate(0,5)" font-family="sans-serif" font-size="18px" fill="#000" opacity="1">2012</text><text text-anchor="end" transform="translate(107.14285714285715,7) rotate(270) translate(0,5)" font-family="sans-serif" font-size="18px" fill="#000" opacity="1">2013</text><text text-anchor="end" transform="translate(150,7) rotate(270) translate(0,5)" font-family="sans-serif" font-size="18px" fill="#000" opacity="1">2014</text><text text-anchor="end" transform="translate(192.85714285714286,7) rotate(270) translate(0,5)" font-family="sans-serif" font-size="18px" fill="#000" opacity="1">2015</text><text text-anchor="end" transform="translate(235.71428571428572,7) rotate(270) translate(0,5)" font-family="sans-serif" font-size="18px" fill="#000" opacity="1">2016</text><text text-anchor="end" transform="translate(278.57142857142856,7) rotate(270) translate(0,5)" font-family="sans-serif" font-size="18px" fill="#000" opacity="1">2017</text></g><g class="mark-rule role-axis-domain" pointer-events="none"><line transform="translate(0,0)" x2="300" y2="0" stroke="#888" stroke-width="1" opacity="1"/></g><g class="mark-text role-axis-title" pointer-events="none"><text text-anchor="middle" transform="translate(150,65.04296875)" font-family="sans-serif" font-size="18px" font-weight="bold" fill="#000" opacity="1">Year</text></g></g><path class="foreground" aria-hidden="true" d="" pointer-events="none" display="none"/></g></g><g class="mark-group role-axis" role="graphics-symbol" aria-roledescription="axis" aria-label="Y-axis titled 'Fraction' for a linear scale with values from 0.00 to 0.26"><g transform="translate(0.5,0.5)"><path class="background" aria-hidden="true" d="M0,0h0v0h0Z" pointer-events="none"/><g><g class="mark-rule role-axis-tick" pointer-events="none"><line transform="translate(0,300)" x2="-5" y2="0" stroke="#888" stroke-width="1" opacity="1"/><line transform="translate(0,242)" x2="-5" y2="0" stroke="#888" stroke-width="1" opacity="1"/><line transform="translate(0,185)" x2="-5" y2="0" stroke="#888" stroke-width="1" opacity="1"/><line transform="translate(0,127)" x2="-5" y2="0" stroke="#888" stroke-width="1" opacity="1"/><line transform="translate(0,69)" x2="-5" y2="0" stroke="#888" stroke-width="1" opacity="1"/><line transform="translate(0,12)" x2="-5" y2="0" stroke="#888" stroke-width="1" opacity="1"/></g><g class="mark-text role-axis-label" pointer-events="none"><text text-anchor="end" transform="translate(-7,305)" font-family="sans-serif" font-size="18px" fill="#000" opacity="1">0.00</text><text text-anchor="end" transform="translate(-7,247.30769230769232)" font-family="sans-serif" font-size="18px" fill="#000" opacity="1">0.05</text><text text-anchor="end" transform="translate(-7,189.6153846153846)" font-family="sans-serif" font-size="18px" fill="#000" opacity="1">0.10</text><text text-anchor="end" transform="translate(-7,131.92307692307693)" font-family="sans-serif" font-size="18px" fill="#000" opacity="1">0.15</text><text text-anchor="end" transform="translate(-7,74.23076923076921)" font-family="sans-serif" font-size="18px" fill="#000" opacity="1">0.20</text><text text-anchor="end" transform="translate(-7,16.538461538461565)" font-family="sans-serif" font-size="18px" fill="#000" opacity="1">0.25</text></g><g class="mark-rule role-axis-domain" pointer-events="none"><line transform="translate(0,300)" x2="0" y2="-300" stroke="#888" stroke-width="1" opacity="1"/></g><g class="mark-text role-axis-title" pointer-events="none"><text text-anchor="middle" transform="translate(-46.033203125,150) rotate(-90) translate(0,-4)" font-family="sans-serif" font-size="18px" font-weight="bold" fill="#000" opacity="1">Fraction</text></g></g><path class="foreground" aria-hidden="true" d="" pointer-events="none" display="none"/></g></g><g class="mark-group role-scope concat_0_layer_0_pathgroup" role="graphics-object" aria-roledescription="group mark container"><g transform="translate(0,0)"><path class="background" aria-hidden="true" d="M0,0h300v300h-300Z"/><g><g class="mark-line role-mark concat_0_layer_0_marks" role="graphics-object" aria-roledescription="line mark container"><path aria-label="Year: 2011; Fraction: 0.0357142857143; Classifier: Truth" role="graphics-symbol" aria-roledescription="line mark" d="M21.429,258.791L64.286,272.527L107.143,191.827L150,223.077L192.857,74.859L235.714,144.075L278.571,220.424" stroke="#f58518" stroke-width="2"/></g></g><path class="foreground" aria-hidden="true" d="" display="none"/></g><g transform="translate(0,0)"><path class="background" aria-hidden="true" d="M0,0h300v300h-300Z"/><g><g class="mark-line role-mark concat_0_layer_0_marks" role="graphics-object" aria-roledescription="line mark container"><path aria-label="Year: 2011; Fraction: 0.107142857143; Classifier: Random Forest" role="graphics-symbol" aria-roledescription="line mark" d="M21.429,176.374L64.286,300L107.143,155.769L150,223.077L192.857,74.859L235.714,175.26L278.571,240.318" stroke="#4c78a8" stroke-width="2"/></g></g><path class="foreground" aria-hidden="true" d="" display="none"/></g><g transform="translate(0,0)"><path class="background" aria-hidden="true" d="M0,0h300v300h-300Z"/><g><g class="mark-line role-mark concat_0_layer_0_marks" role="graphics-object" aria-roledescription="line mark container"><path aria-label="Year: 2011; Fraction: 0.107142857143; Classifier: XGBoost" role="graphics-symbol" aria-roledescription="line mark" d="M21.429,176.374L64.286,300L107.143,191.827L150,223.077L192.857,103.002L235.714,175.26L278.571,240.318" stroke="#e45756" stroke-width="2"/></g></g><path class="foreground" aria-hidden="true" d="" display="none"/></g></g><g class="mark-group role-scope concat_0_layer_1_pathgroup" role="graphics-object" aria-roledescription="group mark container"><g transform="translate(0,0)"><path class="background" aria-hidden="true" d="M0,0h300v300h-300Z"/><g><g class="mark-area role-mark concat_0_layer_1_marks" role="graphics-object" aria-roledescription="area mark container"><path aria-label="Year: 2011; Fraction: 0.0357142857143; Classifier: Truth" role="graphics-symbol" aria-roledescription="area mark" d="M21.429,258.791L64.286,272.527L107.143,191.827L150,223.077L192.857,74.859L235.714,144.075L278.571,220.424L278.571,220.424L235.714,144.075L192.857,74.859L150,223.077L107.143,191.827L64.286,272.527L21.429,258.791Z" fill="#f58518" opacity="0.5"/></g></g><path class="foreground" aria-hidden="true" d="" display="none"/></g><g transform="translate(0,0)"><path class="background" aria-hidden="true" d="M0,0h300v300h-300Z"/><g><g class="mark-area role-mark concat_0_layer_1_marks" role="graphics-object" aria-roledescription="area mark container"><path aria-label="Year: 2011; Fraction: 0.133928571429; Classifier: Random Forest" role="graphics-symbol" aria-roledescription="area mark" d="M21.429,145.467L64.286,300L107.143,119.712L150,203.846L192.857,18.574L235.714,144.075L278.571,225.398L278.571,241.786L235.714,178.327L192.857,80.396L150,224.968L107.143,159.316L64.286,300L21.429,179.414Z" fill="#4c78a8" opacity="0.5"/></g></g><path class="foreground" aria-hidden="true" d="" display="none"/></g><g transform="translate(0,0)"><path class="background" aria-hidden="true" d="M0,0h300v300h-300Z"/><g><g class="mark-area role-mark concat_0_layer_1_marks" role="graphics-object" aria-roledescription="area mark container"><path aria-label="Year: 2011; Fraction: 0.133928571429; Classifier: XGBoost" role="graphics-symbol" aria-roledescription="area mark" d="M21.429,145.467L64.286,300L107.143,164.784L150,203.846L192.857,53.752L235.714,144.075L278.571,225.398L278.571,241.297L235.714,177.305L192.857,106.231L150,224.338L107.143,193.6L64.286,300L21.429,178.4Z" fill="#e45756" opacity="0.5"/></g></g><path class="foreground" aria-hidden="true" d="" display="none"/></g></g><g class="mark-group role-title"><g transform="translate(150,-26)"><path class="background" aria-hidden="true" d="M0,0h0v0h0Z" pointer-events="none"/><g><g class="mark-text role-title-text" role="graphics-symbol" aria-roledescription="title" aria-label="Title text 'Test'" pointer-events="none"><text text-anchor="middle" transform="translate(0,17)" font-family="sans-serif" font-size="22px" font-weight="bold" fill="#000" opacity="1">Test</text></g></g><path class="foreground" aria-hidden="true" d="" pointer-events="none" display="none"/></g></g></g><path class="foreground" aria-hidden="true" d="" display="none"/></g></g><g class="mark-group role-scope concat_1_group" role="graphics-object" aria-roledescription="group mark container"><g transform="translate(387,0)"><path class="background" aria-hidden="true" d="M0.5,0.5h300v300h-300Z" stroke="#ddd"/><g><g class="mark-group role-axis" aria-hidden="true"><g transform="translate(0.5,0.5)"><path class="background" aria-hidden="true" d="M0,0h0v0h0Z" pointer-events="none"/><g><g class="mark-rule role-axis-grid" pointer-events="none"><line transform="translate(0,300)" x2="300" y2="0" stroke="#ddd" stroke-width="1" opacity="1"/><line transform="translate(0,275)" x2="300" y2="0" stroke="#ddd" stroke-width="1" opacity="1"/><line transform="translate(0,250)" x2="300" y2="0" stroke="#ddd" stroke-width="1" opacity="1"/><line transform="translate(0,225)" x2="300" y2="0" stroke="#ddd" stroke-width="1" opacity="1"/><line transform="translate(0,200)" x2="300" y2="0" stroke="#ddd" stroke-width="1" opacity="1"/><line transform="translate(0,175)" x2="300" y2="0" stroke="#ddd" stroke-width="1" opacity="1"/><line transform="translate(0,150)" x2="300" y2="0" stroke="#ddd" stroke-width="1" opacity="1"/><line transform="translate(0,125)" x2="300" y2="0" stroke="#ddd" stroke-width="1" opacity="1"/><line transform="translate(0,100)" x2="300" y2="0" stroke="#ddd" stroke-width="1" opacity="1"/><line transform="translate(0,75)" x2="300" y2="0" stroke="#ddd" stroke-width="1" opacity="1"/><line transform="translate(0,50)" x2="300" y2="0" stroke="#ddd" stroke-width="1" opacity="1"/><line transform="translate(0,25)" x2="300" y2="0" stroke="#ddd" stroke-width="1" opacity="1"/><line transform="translate(0,0)" x2="300" y2="0" stroke="#ddd" stroke-width="1" opacity="1"/></g></g><path class="foreground" aria-hidden="true" d="" pointer-events="none" display="none"/></g></g><g class="mark-group role-axis" role="graphics-symbol" aria-roledescription="axis" aria-label="X-axis titled 'Year' for a discrete scale with 7 values: 2011, 2012, 2013, 2014, 2015, 2016, 2017"><g transform="translate(0.5,300.5)"><path class="background" aria-hidden="true" d="M0,0h0v0h0Z" pointer-events="none"/><g><g class="mark-rule role-axis-tick" pointer-events="none"><line transform="translate(21,0)" x2="0" y2="5" stroke="#888" stroke-width="1" opacity="1"/><line transform="translate(64,0)" x2="0" y2="5" stroke="#888" stroke-width="1" opacity="1"/><line transform="translate(107,0)" x2="0" y2="5" stroke="#888" stroke-width="1" opacity="1"/><line transform="translate(150,0)" x2="0" y2="5" stroke="#888" stroke-width="1" opacity="1"/><line transform="translate(193,0)" x2="0" y2="5" stroke="#888" stroke-width="1" opacity="1"/><line transform="translate(236,0)" x2="0" y2="5" stroke="#888" stroke-width="1" opacity="1"/><line transform="translate(279,0)" x2="0" y2="5" stroke="#888" stroke-width="1" opacity="1"/></g><g class="mark-text role-axis-label" pointer-events="none"><text text-anchor="end" transform="translate(21.428571428571445,7) rotate(270) translate(0,5)" font-family="sans-serif" font-size="18px" fill="#000" opacity="1">2011</text><text text-anchor="end" transform="translate(64.2857142857143,7) rotate(270) translate(0,5)" font-family="sans-serif" font-size="18px" fill="#000" opacity="1">2012</text><text text-anchor="end" transform="translate(107.14285714285715,7) rotate(270) translate(0,5)" font-family="sans-serif" font-size="18px" fill="#000" opacity="1">2013</text><text text-anchor="end" transform="translate(150,7) rotate(270) translate(0,5)" font-family="sans-serif" font-size="18px" fill="#000" opacity="1">2014</text><text text-anchor="end" transform="translate(192.85714285714286,7) rotate(270) translate(0,5)" font-family="sans-serif" font-size="18px" fill="#000" opacity="1">2015</text><text text-anchor="end" transform="translate(235.71428571428572,7) rotate(270) translate(0,5)" font-family="sans-serif" font-size="18px" fill="#000" opacity="1">2016</text><text text-anchor="end" transform="translate(278.57142857142856,7) rotate(270) translate(0,5)" font-family="sans-serif" font-size="18px" fill="#000" opacity="1">2017</text></g><g class="mark-rule role-axis-domain" pointer-events="none"><line transform="translate(0,0)" x2="300" y2="0" stroke="#888" stroke-width="1" opacity="1"/></g><g class="mark-text role-axis-title" pointer-events="none"><text text-anchor="middle" transform="translate(150,65.04296875)" font-family="sans-serif" font-size="18px" font-weight="bold" fill="#000" opacity="1">Year</text></g></g><path class="foreground" aria-hidden="true" d="" pointer-events="none" display="none"/></g></g><g class="mark-group role-axis" role="graphics-symbol" aria-roledescription="axis" aria-label="Y-axis titled 'Fraction' for a linear scale with values from 0.00 to 0.24"><g transform="translate(0.5,0.5)"><path class="background" aria-hidden="true" d="M0,0h0v0h0Z" pointer-events="none"/><g><g class="mark-rule role-axis-tick" pointer-events="none"><line transform="translate(0,300)" x2="-5" y2="0" stroke="#888" stroke-width="1" opacity="1"/><line transform="translate(0,275)" x2="-5" y2="0" stroke="#888" stroke-width="1" opacity="1"/><line transform="translate(0,250)" x2="-5" y2="0" stroke="#888" stroke-width="1" opacity="1"/><line transform="translate(0,225)" x2="-5" y2="0" stroke="#888" stroke-width="1" opacity="1"/><line transform="translate(0,200)" x2="-5" y2="0" stroke="#888" stroke-width="1" opacity="1"/><line transform="translate(0,175)" x2="-5" y2="0" stroke="#888" stroke-width="1" opacity="1"/><line transform="translate(0,150)" x2="-5" y2="0" stroke="#888" stroke-width="1" opacity="1"/><line transform="translate(0,125)" x2="-5" y2="0" stroke="#888" stroke-width="1" opacity="1"/><line transform="translate(0,100)" x2="-5" y2="0" stroke="#888" stroke-width="1" opacity="1"/><line transform="translate(0,75)" x2="-5" y2="0" stroke="#888" stroke-width="1" opacity="1"/><line transform="translate(0,50)" x2="-5" y2="0" stroke="#888" stroke-width="1" opacity="1"/><line transform="translate(0,25)" x2="-5" y2="0" stroke="#888" stroke-width="1" opacity="1"/><line transform="translate(0,0)" x2="-5" y2="0" stroke="#888" stroke-width="1" opacity="1"/></g><g class="mark-text role-axis-label" pointer-events="none"><text text-anchor="end" transform="translate(-7,305)" font-family="sans-serif" font-size="18px" fill="#000" opacity="1">0.00</text><text text-anchor="end" transform="translate(-7,280)" font-family="sans-serif" font-size="18px" fill="#000" opacity="1">0.02</text><text text-anchor="end" transform="translate(-7,254.99999999999997)" font-family="sans-serif" font-size="18px" fill="#000" opacity="1">0.04</text><text text-anchor="end" transform="translate(-7,230)" font-family="sans-serif" font-size="18px" fill="#000" opacity="1">0.06</text><text text-anchor="end" transform="translate(-7,205)" font-family="sans-serif" font-size="18px" fill="#000" opacity="1">0.08</text><text text-anchor="end" transform="translate(-7,179.99999999999997)" font-family="sans-serif" font-size="18px" fill="#000" opacity="1">0.10</text><text text-anchor="end" transform="translate(-7,155)" font-family="sans-serif" font-size="18px" fill="#000" opacity="1">0.12</text><text text-anchor="end" transform="translate(-7,130)" font-family="sans-serif" font-size="18px" fill="#000" opacity="1">0.14</text><text text-anchor="end" transform="translate(-7,104.99999999999997)" font-family="sans-serif" font-size="18px" fill="#000" opacity="1">0.16</text><text text-anchor="end" transform="translate(-7,80)" font-family="sans-serif" font-size="18px" fill="#000" opacity="1">0.18</text><text text-anchor="end" transform="translate(-7,54.999999999999986)" font-family="sans-serif" font-size="18px" fill="#000" opacity="1">0.20</text><text text-anchor="end" transform="translate(-7,29.99999999999998)" font-family="sans-serif" font-size="18px" fill="#000" opacity="1">0.22</text><text text-anchor="end" transform="translate(-7,5)" font-family="sans-serif" font-size="18px" fill="#000" opacity="1">0.24</text></g><g class="mark-rule role-axis-domain" pointer-events="none"><line transform="translate(0,300)" x2="0" y2="-300" stroke="#888" stroke-width="1" opacity="1"/></g><g class="mark-text role-axis-title" pointer-events="none"><text text-anchor="middle" transform="translate(-46.033203125,150) rotate(-90) translate(0,-4)" font-family="sans-serif" font-size="18px" font-weight="bold" fill="#000" opacity="1">Fraction</text></g></g><path class="foreground" aria-hidden="true" d="" pointer-events="none" display="none"/></g></g><g class="mark-group role-scope concat_1_layer_0_pathgroup" role="graphics-object" aria-roledescription="group mark container"><g transform="translate(0,0)"><path class="background" aria-hidden="true" d="M0,0h300v300h-300Z"/><g><g class="mark-line role-mark concat_1_layer_0_marks" role="graphics-object" aria-roledescription="line mark container"><path aria-label="Year: 2011; Fraction: 0.0617283950617; Classifier: Truth" role="graphics-symbol" aria-roledescription="line mark" d="M21.429,222.84L64.286,238.65L107.143,117.416L150,165.196L192.857,180.435L235.714,146.491L278.571,182.246" stroke="#f58518" stroke-width="2"/></g></g><path class="foreground" aria-hidden="true" d="" display="none"/></g><g transform="translate(0,0)"><path class="background" aria-hidden="true" d="M0,0h300v300h-300Z"/><g><g class="mark-line role-mark concat_1_layer_0_marks" role="graphics-object" aria-roledescription="line mark container"><path aria-label="Year: 2011; Fraction: 0.0617283950617; Classifier: Random Forest" role="graphics-symbol" aria-roledescription="line mark" d="M21.429,222.84L64.286,223.313L107.143,75.281L150,152.941L192.857,169.565L235.714,124.561L278.571,164.13" stroke="#4c78a8" stroke-width="2"/></g></g><path class="foreground" aria-hidden="true" d="" display="none"/></g><g transform="translate(0,0)"><path class="background" aria-hidden="true" d="M0,0h300v300h-300Z"/><g><g class="mark-line role-mark concat_1_layer_0_marks" role="graphics-object" aria-roledescription="line mark container"><path aria-label="Year: 2011; Fraction: 0.0617283950617; Classifier: XGBoost" role="graphics-symbol" aria-roledescription="line mark" d="M21.429,222.84L64.286,230.982L107.143,117.416L150,152.941L192.857,202.174L235.714,146.491L278.571,191.304" stroke="#e45756" stroke-width="2"/></g></g><path class="foreground" aria-hidden="true" d="" display="none"/></g></g><g class="mark-group role-scope concat_1_layer_1_pathgroup" role="graphics-object" aria-roledescription="group mark container"><g transform="translate(0,0)"><path class="background" aria-hidden="true" d="M0,0h300v300h-300Z"/><g><g class="mark-area role-mark concat_1_layer_1_marks" role="graphics-object" aria-roledescription="area mark container"><path aria-label="Year: 2011; Fraction: 0.0617283950617; Classifier: Truth" role="graphics-symbol" aria-roledescription="area mark" d="M21.429,222.84L64.286,238.65L107.143,117.416L150,165.196L192.857,180.435L235.714,146.491L278.571,182.246L278.571,182.246L235.714,146.491L192.857,180.435L150,165.196L107.143,117.416L64.286,238.65L21.429,222.84Z" fill="#f58518" opacity="0.5"/></g></g><path class="foreground" aria-hidden="true" d="" display="none"/></g><g transform="translate(0,0)"><path class="background" aria-hidden="true" d="M0,0h300v300h-300Z"/><g><g class="mark-area role-mark concat_1_layer_1_marks" role="graphics-object" aria-roledescription="area mark container"><path aria-label="Year: 2011; Fraction: 0.0771604938272; Classifier: Random Forest" role="graphics-symbol" aria-roledescription="area mark" d="M21.429,203.549L64.286,204.141L107.143,19.101L150,116.176L192.857,136.957L235.714,80.702L278.571,130.163L278.571,167.471L235.714,128.875L192.857,172.773L150,156.557L107.143,80.807L64.286,225.199L21.429,224.737Z" fill="#4c78a8" opacity="0.5"/></g></g><path class="foreground" aria-hidden="true" d="" display="none"/></g><g transform="translate(0,0)"><path class="background" aria-hidden="true" d="M0,0h300v300h-300Z"/><g><g class="mark-area role-mark concat_1_layer_1_marks" role="graphics-object" aria-roledescription="area mark container"><path aria-label="Year: 2011; Fraction: 0.0771604938272; Classifier: XGBoost" role="graphics-symbol" aria-roledescription="area mark" d="M21.429,203.549L64.286,213.727L107.143,71.77L150,116.176L192.857,177.717L235.714,108.114L278.571,164.13L278.571,193.086L235.714,149.008L192.857,203.778L150,155.352L107.143,120.409L64.286,232.113L21.429,224.104Z" fill="#e45756" opacity="0.5"/></g></g><path class="foreground" aria-hidden="true" d="" display="none"/></g></g><g class="mark-group role-title"><g transform="translate(150,-35)"><path class="background" aria-hidden="true" d="M0,0h0v0h0Z" pointer-events="none"/><g><g class="mark-text role-title-text" role="graphics-symbol" aria-roledescription="title" aria-label="Title text 'Training'" pointer-events="none"><text text-anchor="middle" transform="translate(0,17)" font-family="sans-serif" font-size="22px" font-weight="bold" fill="#000" opacity="1">Training</text></g></g><path class="foreground" aria-hidden="true" d="" pointer-events="none" display="none"/></g></g></g><path class="foreground" aria-hidden="true" d="" display="none"/></g></g><g class="mark-group role-legend" role="graphics-symbol" aria-roledescription="legend" aria-label="Symbol legend titled 'Classifier' for fill color and stroke color with 3 values: Random Forest, Truth, XGBoost"><g transform="translate(706,0)"><path class="background" aria-hidden="true" d="M0,0h147v83h-147Z" pointer-events="none"/><g><g class="mark-group role-legend-entry"><g transform="translate(0,25)"><path class="background" aria-hidden="true" d="M0,0h0v0h0Z" pointer-events="none"/><g><g class="mark-group role-scope" role="graphics-object" aria-roledescription="group mark container"><g transform="translate(0,0)"><path class="background" aria-hidden="true" d="M0,0h146.048828125v18h-146.048828125Z" pointer-events="none" opacity="1"/><g><g class="mark-symbol role-legend-symbol" pointer-events="none"><path transform="translate(9,9)" d="M5,0A5,5,0,1,1,-5,0A5,5,0,1,1,5,0" fill="#4c78a8" stroke="#4c78a8" stroke-width="1.5" opacity="0.5"/></g><g class="mark-text role-legend-label" pointer-events="none"><text text-anchor="start" transform="translate(22,14)" font-family="sans-serif" font-size="18px" fill="#000" opacity="1">Random Forest</text></g></g><path class="foreground" aria-hidden="true" d="" pointer-events="none" display="none"/></g><g transform="translate(0,20)"><path class="background" aria-hidden="true" d="M0,0h146.048828125v18h-146.048828125Z" pointer-events="none" opacity="1"/><g><g class="mark-symbol role-legend-symbol" pointer-events="none"><path transform="translate(9,9)" d="M5,0A5,5,0,1,1,-5,0A5,5,0,1,1,5,0" fill="#f58518" stroke="#f58518" stroke-width="1.5" opacity="0.5"/></g><g class="mark-text role-legend-label" pointer-events="none"><text text-anchor="start" transform="translate(22,14)" font-family="sans-serif" font-size="18px" fill="#000" opacity="1">Truth</text></g></g><path class="foreground" aria-hidden="true" d="" pointer-events="none" display="none"/></g><g transform="translate(0,40)"><path class="background" aria-hidden="true" d="M0,0h146.048828125v18h-146.048828125Z" pointer-events="none" opacity="1"/><g><g class="mark-symbol role-legend-symbol" pointer-events="none"><path transform="translate(9,9)" d="M5,0A5,5,0,1,1,-5,0A5,5,0,1,1,5,0" fill="#e45756" stroke="#e45756" stroke-width="1.5" opacity="0.5"/></g><g class="mark-text role-legend-label" pointer-events="none"><text text-anchor="start" transform="translate(22,14)" font-family="sans-serif" font-size="18px" fill="#000" opacity="1">XGBoost</text></g></g><path class="foreground" aria-hidden="true" d="" pointer-events="none" display="none"/></g></g></g><path class="foreground" aria-hidden="true" d="" pointer-events="none" display="none"/></g></g><g class="mark-text role-legend-title" pointer-events="none"><text text-anchor="start" transform="translate(0,16)" font-family="sans-serif" font-size="20px" font-weight="bold" fill="#000" opacity="1">Classifier</text></g></g><path class="foreground" aria-hidden="true" d="" pointer-events="none" display="none"/></g></g></g><path class="foreground" aria-hidden="true" d="" display="none"/></g></g></g></svg>